<?xml version="1.0" encoding="UTF-8"?>
<svg id="Layer_1" xmlns="http://www.w3.org/2000/svg" version="1.1" viewBox="0 0 2009.11 341.19">
  <!-- Generator: Adobe Illustrator 29.3.1, SVG Export Plug-In . SVG Version: 2.1.0 Build 151)  -->
  <defs>
    <style>
      .st0, .st1 {
        fill: #231f20;
      }

      .st1 {
        font-size: 124.43px;
      }

      .st1, .st2 {
        font-family: Inter18pt-Regular, 'Inter 18pt';
      }

      .st3 {
        fill: #f93822;
      }

      .st4 {
        fill: #1a1919;
      }

      .st2 {
        font-size: 73.26px;
      }

      .st5 {
        fill: none;
        stroke: #000;
        stroke-miterlimit: 10;
        stroke-width: 3px;
      }
    </style>
  </defs>
  <g>
    <g>
      <path class="st0" d="M216.54,147.12l-39.58-68.47-28.66,49.81,44.81,77.79,8.94-15.42,14.48-25.06c3.64-6.37,3.64-12.28,0-18.65Z"/>
      <polygon class="st0" points="113.5 188.75 158.31 266.54 186.97 216.73 142.16 139.16 113.5 188.75"/>
      <path class="st0" d="M126.7,144.62l42.63-73.49c-2.5-1.21-5.39-1.8-8.74-1.8h-47.54l-43.45,75.29h57.09Z"/>
      <path class="st0" d="M32.53,220.14l27.7,48.14c3.57,5.17,8.5,7.59,15.29,7.59h66.42c3.34,0,6.24-.59,8.74-1.8l-31.26-53.93H32.53Z"/>
      <path class="st0" d="M81.66,154.63H-2.72c.1,2.87,1.01,5.77,2.72,8.87l26.89,46.86h87.06l-32.3-55.73Z"/>
      <path class="st0" d="M.13,144.62h57.19l43.44-75.29h-46.4c-6.83,0-11.78,2.45-15.36,7.69L.13,144.62Z"/>
    </g>
    <polygon class="st0" points="366.27 134.1 322.01 213.71 277.94 134.1 255.67 134.1 307.63 224.51 336.58 224.51 388.36 134.1 366.27 134.1"/>
    <polygon class="st0" points="463.36 224.51 463.36 210.54 433.45 210.54 433.45 134.1 400.64 134.1 392.73 147.91 415.08 147.91 415.08 210.54 385.13 210.54 385.13 224.51 463.36 224.51"/>
    <rect class="st0" x="414.66" y="97.07" width="18.79" height="18.79"/>
    <polygon class="st0" points="751.88 134.1 724.81 213.56 700.4 134.1 669.84 134.1 645.65 213.59 618.36 134.1 597.62 134.1 630.77 224.51 659.66 224.51 685.22 143.56 710.59 224.51 739.66 224.51 772.63 134.1 751.88 134.1"/>
    <path class="st0" d="M571.04,197.01c-6.71,11.99-23.02,16.31-40.77,16.31-26.38,0-43.64-10.07-44.6-29.25h104.07v-6.71c0-31.65-23.98-47.48-60.91-47.48s-62.35,18.7-62.35,49.4,23.5,49.4,64.27,49.4c26.38,0,53.23-11.03,59.47-31.65h-19.18ZM486.63,170.16c1.44-13.91,17.27-25.42,42.2-25.42,20.14,0,39.33,5.28,41.72,25.42h-83.93Z"/>
  </g>
  <text class="st2" transform="translate(1407.73 104.39)"><tspan x="0" y="0">CPU powered by:</tspan></text>
  <text class="st1" transform="translate(795.78 224.5)"><tspan x="0" y="0">AI</tspan></text>
  <g>
    <path class="st3" d="M1365.97,249.81c-11.04-17.36-26.51-32.03-44.36-42.4-16.63-9.62-35.23-15.41-54.44-16.95l6.95-12.79c19.21,2.36,37.75,8.54,54.44,18.24,4.43,2.56,8.65,5.32,12.74,8.34l-49.81-91.86-74.61,137.55h-15.4l31.21-57.6c-14.38,2.69-28.28,7.8-40.88,15.14-17.92,10.43-33.11,25.03-44.09,42.46h-15.74c.61-1.14,1.29-2.36,1.98-3.5,12.26-20.86,29.91-38.29,50.97-50.47,17.1-9.89,36.11-16.15,55.8-18.3l50.63-93.81,90.01,165.95h-15.4Z"/>
    <path class="st4" d="M1844.08,208.65h-26.3v-21.53h28.14c6.88,0,10.83,3.7,10.83,10.09,0,7.61-4.22,11.44-12.67,11.44ZM1856.69,217.2c7.77-3.37,12.26-10.43,12.26-20.19,0-13.25-8.59-20.59-24.12-20.59h-39.11v70.32h12.2v-27.45h26.23l14.72,27.45h13.76l-15.88-29.54h-.07ZM1955.97,246.74h-58.53v-70.32h58.53v10.7h-46.4v18.03h44.09v10.63h-44.09v20.32h46.4v10.7-.07ZM1775.13,246.74h-58.6v-70.32h58.6v10.7h-46.4v18.03h44.09v10.63h-44.09v20.32h46.4v10.7-.07ZM1668.29,208.65h-23.85v-21.53h25.69c6.88,0,10.83,3.7,10.83,10.09,0,7.61-4.22,11.44-12.67,11.44M1668.9,176.42h-36.66v70.32h12.2v-27.45h25.21c14.45,0,23.44-8.55,23.44-22.28s-8.59-20.59-24.12-20.59M1548.09,240.88l-25.55-47.04v52.89h-12.13v-70.32h16.01l26.91,50.13,26.91-50.13h16.01v70.32h-12.2v-52.89l-25.55,47.04h-10.43ZM1435.05,216.12l11.58-27.05,11.86,27.05h-23.44ZM1453.59,176.42h-13.7l-32.16,70.26h13.83l8.86-19.92h32.77l8.86,19.92h13.83l-32.23-70.32-.07.07Z"/>
    <path class="st4" d="M1979.96,235.16h1.16c1.36,0,2.52-.47,2.52-1.55,0-1.01-.75-1.61-2.32-1.61-.68,0-1.16.06-1.36.13v3.09-.07ZM1979.89,241.22h-2.52v-10.7c1.02-.2,2.38-.34,4.16-.34,2.04,0,3,.34,3.75.81.61.47,1.02,1.28,1.02,2.36,0,1.14-.89,2.08-2.25,2.49v.13c1.09.4,1.64,1.15,1.98,2.63.34,1.62.55,2.29.82,2.69h-2.73c-.34-.4-.55-1.35-.89-2.62-.2-1.14-.89-1.68-2.25-1.68h-1.23v4.31l.14-.06ZM1973.22,235.63c0,4.78,3.54,8.55,8.45,8.55s8.24-3.77,8.24-8.48-3.47-8.61-8.31-8.61-8.38,3.83-8.38,8.54M1992.77,235.63c0,6.06-4.84,10.83-11.11,10.83s-11.17-4.78-11.17-10.83,4.97-10.7,11.17-10.7,11.11,4.77,11.11,10.7Z"/>
  </g>
  <line class="st5" x1="1047.77" x2="1047.77" y2="341.19"/>
</svg>